<svg xmlns="http://www.w3.org/2000/svg" version="1.1" xmlns:xlink="http://www.w3.org/1999/xlink" xmlns:svgjs="http://svgjs.com/svgjs" width="202" height="202"><svg width="202" height="202" viewBox="0 0 202 202" fill="none" xmlns="http://www.w3.org/2000/svg">
<rect x="113" y="71" width="89" height="61" fill="#FF6C00"></rect>
<rect y="71" width="87" height="60" fill="black"></rect>
<path d="M89 71H87V131H89L110 101L89 71Z" fill="black"></path>
<path d="M37.631 96.8604C37.4902 96.3384 37.283 95.8786 37.0096 95.4808C36.7362 95.0748 36.4006 94.7309 36.0028 94.4492C35.6051 94.1675 35.1494 93.9562 34.6357 93.8153C34.1219 93.6662 33.5585 93.5916 32.9453 93.5916C31.7107 93.5916 30.6418 93.8899 29.7386 94.4865C28.8438 95.0831 28.1519 95.9531 27.663 97.0966C27.1741 98.2318 26.9297 99.6114 26.9297 101.235C26.9297 102.868 27.1658 104.26 27.6381 105.412C28.1104 106.563 28.794 107.442 29.6889 108.047C30.5838 108.651 31.6693 108.954 32.9453 108.954C34.0722 108.954 35.0251 108.772 35.804 108.407C36.5911 108.034 37.1877 107.508 37.5938 106.828C37.9998 106.149 38.2028 105.349 38.2028 104.43L39.3462 104.566H33.1566V100.08H44.1314V103.448C44.1314 105.726 43.6467 107.678 42.6772 109.302C41.716 110.926 40.3903 112.173 38.6999 113.043C37.0179 113.913 35.0831 114.348 32.8956 114.348C30.4678 114.348 28.3342 113.822 26.4947 112.77C24.6552 111.717 23.2217 110.217 22.1942 108.27C21.1668 106.315 20.6531 103.995 20.6531 101.31C20.6531 99.2219 20.9638 97.37 21.5852 95.7543C22.2067 94.1302 23.0726 92.7547 24.1829 91.6278C25.3015 90.5009 26.5941 89.6475 28.0607 89.0675C29.5356 88.4875 31.1224 88.1974 32.821 88.1974C34.2959 88.1974 35.6673 88.4087 36.935 88.8313C38.2111 89.2539 39.338 89.8505 40.3157 90.6211C41.3017 91.3917 42.1013 92.3073 42.7145 93.3679C43.3277 94.4285 43.7088 95.5927 43.858 96.8604H37.631ZM79.1328 101.273C79.1328 104.073 78.5942 106.447 77.517 108.395C76.4398 110.342 74.9815 111.821 73.142 112.832C71.3108 113.843 69.2559 114.348 66.9772 114.348C64.6903 114.348 62.6312 113.838 60.8 112.819C58.9688 111.8 57.5146 110.321 56.4374 108.382C55.3686 106.435 54.8341 104.065 54.8341 101.273C54.8341 98.4721 55.3686 96.0981 56.4374 94.1509C57.5146 92.2037 58.9688 90.7247 60.8 89.7138C62.6312 88.7029 64.6903 88.1974 66.9772 88.1974C69.2559 88.1974 71.3108 88.7029 73.142 89.7138C74.9815 90.7247 76.4398 92.2037 77.517 94.1509C78.5942 96.0981 79.1328 98.4721 79.1328 101.273ZM72.8437 101.273C72.8437 99.6155 72.6075 98.2152 72.1352 97.0717C71.6712 95.9283 71.0001 95.0624 70.1217 94.4741C69.2517 93.8858 68.2035 93.5916 66.9772 93.5916C65.7592 93.5916 64.711 93.8858 63.8327 94.4741C62.9544 95.0624 62.2791 95.9283 61.8068 97.0717C61.3427 98.2152 61.1107 99.6155 61.1107 101.273C61.1107 102.93 61.3427 104.33 61.8068 105.474C62.2791 106.617 62.9544 107.483 63.8327 108.071C64.711 108.66 65.7592 108.954 66.9772 108.954C68.2035 108.954 69.2517 108.66 70.1217 108.071C71.0001 107.483 71.6712 106.617 72.1352 105.474C72.6075 104.33 72.8437 102.93 72.8437 101.273Z" fill="white"></path>
<path d="M145.079 88.5455V114H138.926V88.5455H145.079ZM155.458 93.5419V88.5455H176.973V93.5419H169.255V114H163.189V93.5419H155.458Z" fill="white"></path>
</svg><style>@media (prefers-color-scheme: light) { :root { filter: none; } }
</style></svg>